<svg width="512" height="512" viewBox="0 0 512 512" fill="none" xmlns="http://www.w3.org/2000/svg">
<g clip-path="url(#clip0_1209_2)">
<rect width="512" height="512" fill="#0D0D0D"/>
<path d="M-33.16 233L-79.6 44.36H-81.04C-80.56 49.16 -80.08 55.64 -79.6 63.8C-79.12 71.96 -78.64 80.84 -78.16 90.44C-77.68 99.8 -77.44 108.92 -77.44 117.8V233H-142.24V-24.04H-36.76L1.04001 134.36H2.12L37.04 -24.04H142.52V233H75.56V116.72C75.56 108.56 75.68 99.92 75.92 90.8C76.16 81.44 76.4 72.68 76.64 64.52C77.12 56.12 77.6 49.52 78.08 44.72H76.64L33.8 233H-33.16ZM364.227 130.76C364.227 152.36 360.267 171.08 352.347 186.92C344.427 202.76 332.547 215 316.707 223.64C301.107 232.28 281.427 236.6 257.667 236.6C223.587 236.6 197.547 227.6 179.547 209.6C161.547 191.36 152.547 165.56 152.547 132.2V-24.04H226.347V126.8C226.347 145.04 229.107 158.24 234.627 166.4C240.147 174.56 248.067 178.64 258.387 178.64C266.067 178.64 272.307 176.84 277.107 173.24C281.907 169.64 285.387 164 287.547 156.32C289.707 148.64 290.787 138.68 290.787 126.44V-24.04H364.227V130.76ZM540.596 154.88C540.596 168.8 537.356 182 530.876 194.48C524.636 206.96 514.316 217.16 499.916 225.08C485.516 232.76 466.436 236.6 442.676 236.6C430.196 236.6 419.636 236 410.996 234.8C402.596 233.84 394.916 232.16 387.956 229.76C380.996 227.36 373.316 224.24 364.916 220.4V158.48C378.836 165.44 392.756 170.84 406.676 174.68C420.596 178.28 432.596 180.08 442.676 180.08C447.956 180.08 452.396 179.24 455.996 177.56C459.596 175.88 462.236 173.6 463.916 170.72C465.836 167.84 466.796 164.6 466.796 161C466.796 156.44 465.716 152.6 463.556 149.48C461.396 146.36 457.316 143.12 451.316 139.76C445.316 136.4 436.556 132.32 425.036 127.52C414.236 122.96 404.996 118.28 397.316 113.48C389.876 108.68 383.876 103.28 379.316 97.28C374.756 91.28 371.396 84.32 369.236 76.4C367.076 68.24 365.996 58.64 365.996 47.6C365.996 31.04 370.076 17.24 378.236 6.19998C386.636 -5.08002 398.036 -13.48 412.436 -19C426.836 -24.76 443.396 -27.64 462.116 -27.64C479.876 -27.64 495.356 -25.72 508.556 -21.88C521.996 -18.28 532.916 -14.08 541.316 -9.28001L519.356 44.36C509.756 39.32 499.556 35.36 488.756 32.48C477.956 29.36 468.356 27.8 459.956 27.8C454.916 27.8 450.836 28.52 447.716 29.96C444.596 31.4 442.316 33.44 440.876 36.08C439.436 38.48 438.716 41.24 438.716 44.36C438.716 48.44 440.036 52.04 442.676 55.16C445.556 58.28 450.476 61.76 457.436 65.6C464.636 69.2 474.596 74.12 487.316 80.36C498.836 85.64 508.556 91.52 516.476 98C524.396 104.48 530.396 112.28 534.476 121.4C538.556 130.28 540.596 141.44 540.596 154.88ZM347.152 270.96L288.472 528H200.992L182.272 419.64C182.032 417.48 181.432 413.88 180.472 408.84C179.752 403.8 178.912 397.92 177.952 391.2C176.992 384.48 176.032 377.76 175.072 371.04C174.352 364.32 173.752 358.32 173.272 353.04C172.792 358.32 172.072 364.32 171.112 371.04C170.152 377.76 169.192 384.48 168.232 391.2C167.272 397.92 166.312 403.8 165.352 408.84C164.632 413.88 164.032 417.48 163.552 419.64L144.472 528H56.6319L-2.40812 270.96H67.7919L94.4319 403.44C95.1519 406.56 95.8719 410.76 96.5919 416.04C97.5519 421.08 98.5119 426.72 99.4719 432.96C100.432 438.96 101.272 445.08 101.992 451.32C102.712 457.32 103.312 462.84 103.792 467.88C104.512 462.36 105.232 457.08 105.952 452.04C106.672 446.76 107.392 441.6 108.112 436.56C108.832 431.52 109.672 426.48 110.632 421.44C111.592 416.16 112.552 410.88 113.512 405.6L139.432 270.96H208.192L232.312 402.36C233.272 407.4 234.112 412.56 234.832 417.84C235.792 423.12 236.632 428.52 237.352 434.04C238.072 439.32 238.792 444.84 239.512 450.6C240.472 456.12 241.432 461.88 242.392 467.88C243.352 460.68 244.552 452.64 245.992 443.76C247.672 434.88 249.232 426.48 250.672 418.56C252.352 410.64 253.552 404.52 254.272 400.2L278.752 270.96H347.152ZM477.314 528L468.674 479.76H395.594L386.234 528H305.234L380.474 269.88H481.274L557.594 528H477.314ZM444.554 380.04C443.354 374.28 441.914 367.8 440.234 360.6C438.554 353.4 436.874 345.96 435.194 338.28C433.754 330.36 432.554 322.92 431.594 315.96C430.634 322.92 429.434 330.24 427.994 337.92C426.554 345.6 425.114 353.04 423.674 360.24C422.234 367.44 420.794 373.92 419.354 379.68L409.274 422.88H454.634L444.554 380.04ZM638.817 377.52H747.537V516.12C735.057 520.68 720.057 524.4 702.537 527.28C685.257 530.16 667.737 531.6 649.977 531.6C627.177 531.6 606.777 526.8 588.777 517.2C570.777 507.6 556.617 492.96 546.297 473.28C535.977 453.6 530.817 428.76 530.817 398.76C530.817 371.88 535.617 348.6 545.217 328.92C554.817 309.24 569.097 294.12 588.057 283.56C607.017 272.76 630.417 267.36 658.257 267.36C674.577 267.36 689.817 268.92 703.977 272.04C718.137 274.92 730.137 278.76 739.977 283.56L717.297 337.92C707.937 333.36 698.577 330 689.217 327.84C679.857 325.44 669.777 324.24 658.977 324.24C644.817 324.24 633.897 327.72 626.217 334.68C618.537 341.64 613.257 350.88 610.377 362.4C607.737 373.92 606.417 386.64 606.417 400.56C606.417 416.4 608.457 429.84 612.537 440.88C616.857 451.92 622.737 460.32 630.177 466.08C637.857 471.6 646.617 474.36 656.457 474.36C657.897 474.36 660.177 474.24 663.297 474C666.657 473.76 669.897 473.4 673.017 472.92C676.377 472.44 678.777 471.96 680.217 471.48V431.16H638.817V377.52Z" fill="#313131"/>
</g>
<defs>
<clipPath id="clip0_1209_2">
<rect width="512" height="512" fill="white"/>
</clipPath>
</defs>
</svg>
